PathFileType	4	(X/Y/Z)	E:\3-PhD\Data\MocapData\ElaboratedData\009\pre\dynamicElaborations\RunN2\RunN2.trc
DataRate	CameraRate	NumFrames	NumMarkers	Units	OrigDataRate	DataStartFrame
200	200	5	54	mm	200	388
Frame#	Time	FHD			LBHD			RBHD			C7			T10			CLAV			LSHO			LUUPA			LMUPA			LDUPA			LLEP			LMEP			LRAD			LUL			LRFIN			RSHO			RUPA1			RMUPA			RDUPA			RLEP			RMEP			RRAD			RUL			RUFIN			RASI			USACR			LSACR			RSACR			LTHI1			LTHI2			LTHI3			LTHI4			LTIB1			LTIB2			LTIB3			LTIB4			LLMAL			LHEE			LMT1			LMT2			RTHI			RTHI2			RTHI3			RTHI4			RLFC			RTIB1			RTIB2			RTIB3			RTIB4			RLMAL			RHEE			RMT1			RMT2			RMT5		
		X1	Y1	Z1	X2	Y2	Z2	X3	Y3	Z3	X4	Y4	Z4	X5	Y5	Z5	X6	Y6	Z6	X7	Y7	Z7	X8	Y8	Z8	X9	Y9	Z9	X10	Y10	Z10	X11	Y11	Z11	X12	Y12	Z12	X13	Y13	Z13	X14	Y14	Z14	X15	Y15	Z15	X16	Y16	Z16	X17	Y17	Z17	X18	Y18	Z18	X19	Y19	Z19	X20	Y20	Z20	X21	Y21	Z21	X22	Y22	Z22	X23	Y23	Z23	X24	Y24	Z24	X25	Y25	Z25	X26	Y26	Z26	X27	Y27	Z27	X28	Y28	Z28	X29	Y29	Z29	X30	Y30	Z30	X31	Y31	Z31	X32	Y32	Z32	X33	Y33	Z33	X34	Y34	Z34	X35	Y35	Z35	X36	Y36	Z36	X37	Y37	Z37	X38	Y38	Z38	X39	Y39	Z39	X40	Y40	Z40	X41	Y41	Z41	X42	Y42	Z42	X43	Y43	Z43	X44	Y44	Z44	X45	Y45	Z45	X46	Y46	Z46	X47	Y47	Z47	X48	Y48	Z48	X49	Y49	Z49	X50	Y50	Z50	X51	Y51	Z51	X52	Y52	Z52	X53	Y53	Z53	X54	Y54	Z54	

395	1.970000	-631.308901	1508.574738	74.951610	-829.313250	1491.506495	46.164488	-754.232793	1501.167996	147.575150	-871.967355	1376.541644	90.767416	-1052.153753	1075.611536	116.436320	-777.710035	1247.910397	75.965109	-805.466441	1302.544126	-65.827221	-946.622504	1190.810257	-175.123786	-940.257703	1143.530775	-163.465363	-993.466116	1142.415922	-192.754768	-1087.223723	1075.195150	-216.593281	-1121.859914	1079.871058	-147.724344	-1115.900957	814.895220	-175.704771	-1169.826863	820.262080	-224.818195	-1108.694711	742.752185	-201.107097	-810.340589	1316.558030	243.863863	-912.263787	1248.455410	375.727812	-896.176938	1206.677478	389.398071	-947.641663	1216.160065	424.549469	-1008.807557	1125.293823	505.991366	-1047.532904	1092.493833	457.807303	-818.439045	946.227286	464.906478	-848.877802	920.554555	523.677126	-752.792450	937.746898	504.131098	-891.552531	892.775668	207.672880	-1085.586471	986.763644	140.024151	-1100.479098	951.773244	120.662576	-1082.852168	960.567490	175.976950	-981.256424	609.548366	-49.890307	-929.763739	542.058071	-57.974311	-884.423175	556.152234	-57.583365	-940.799971	483.138719	-41.002228	-997.354553	319.834169	72.816580	-1063.155678	369.671560	36.641734	-1053.168524	337.999966	63.712431	-1113.507935	342.530843	125.946210	-1258.813210	395.088039	162.214230	-1293.115864	475.464434	216.992076	-1255.837496	256.695361	253.133285	-1270.353772	251.290622	207.969991	-868.916673	708.374746	356.882431	-816.696303	670.455744	362.839050	-786.853394	675.019023	347.434255	-819.137668	585.655519	381.021679	-765.430726	494.462306	403.534431	-733.703466	280.105731	449.279219	-794.617922	236.833683	527.083981	-756.780716	220.692361	504.750332	-762.707904	165.465304	498.306447	-817.872844	101.835037	581.188868	-897.209099	49.443242	574.139802	-680.194058	56.826689	505.928577	-670.177254	57.031760	543.966136	-694.170696	34.507724	606.808453	
396	1.975000	-605.828735	1504.160883	63.892392	-804.169611	1486.659640	37.753512	-727.766248	1496.593678	138.290234	-846.393291	1372.142295	83.902956	-1027.742575	1071.977650	112.978766	-752.818260	1242.465390	67.624138	-783.167758	1296.306854	-74.331041	-928.393718	1184.237957	-179.020129	-922.390973	1136.948791	-166.690883	-976.008808	1136.155651	-195.353572	-1071.020965	1071.169347	-216.395964	-1103.950904	1076.589193	-146.471389	-1115.993887	812.947161	-177.563687	-1170.569378	822.954873	-225.578841	-1116.096219	739.822560	-204.099598	-780.172657	1311.491306	236.400136	-872.251421	1239.199913	372.080574	-855.624775	1197.225450	384.237621	-904.172990	1205.951307	422.638756	-959.939545	1112.245317	505.575239	-1001.445914	1079.463585	460.155423	-769.420554	938.359149	453.835389	-795.908050	911.467501	514.131442	-701.538794	930.953134	489.378857	-867.737176	889.169931	204.410811	-1062.090320	982.946093	136.518820	-1076.585432	947.472628	117.797022	-1058.543042	957.432809	172.915005	-950.832353	610.057948	-57.253985	-896.588248	545.116181	-68.047615	-851.887565	561.098277	-68.429274	-904.649623	485.449664	-52.063441	-952.477268	321.449250	60.387086	-1019.810411	370.151127	26.443248	-1008.563809	338.422915	52.840755	-1067.505292	340.863473	116.566209	-1212.964301	389.638149	156.906933	-1248.336434	468.328025	213.698535	-1204.126575	250.273698	245.792574	-1219.579473	245.148183	200.865206	-848.154497	704.338075	355.907108	-796.443939	665.823485	362.816771	-766.087761	670.173247	348.326054	-800.163494	580.951957	380.529279	-746.872676	489.508160	403.511244	-723.605078	274.753143	450.334514	-787.608146	234.445263	527.492678	-750.200233	216.519277	505.703765	-758.577877	161.516595	499.320127	-817.363187	100.844531	581.754382	-897.695664	48.828805	575.065151	-680.828001	57.016661	506.723947	-670.668731	56.999364	544.694248	-694.412247	34.197607	607.622192	
397	1.980000	-580.619885	1500.104166	52.503252	-779.306144	1482.248458	29.079621	-701.542931	1492.433953	128.673075	-821.086518	1368.080240	76.698859	-1003.460700	1068.850486	108.953832	-728.108400	1237.329897	59.067473	-761.042966	1290.458427	-82.977876	-910.272349	1178.721464	-183.055009	-904.599220	1131.354903	-170.406393	-958.699168	1131.130878	-198.199703	-1054.812014	1068.092302	-216.563333	-1086.066432	1074.072938	-145.619178	-1114.602065	812.757755	-179.125721	-1169.671327	827.072490	-225.886284	-1121.955468	739.027857	-206.458008	-750.121408	1306.951790	228.432727	-832.012035	1230.440598	367.103332	-814.866884	1188.398828	377.828544	-860.352336	1196.284625	419.033453	-910.634174	1099.774613	503.440124	-954.630753	1066.746850	460.703649	-720.141641	931.654241	441.331143	-742.619211	903.400166	502.794141	-650.332557	925.504345	473.280046	-844.191960	885.798008	201.015767	-1038.797011	979.612226	132.367037	-1052.796687	943.669860	114.196653	-1034.489060	954.761635	169.156627	-920.559611	611.360305	-64.790168	-863.652719	549.242695	-78.177639	-819.730972	567.166783	-79.230784	-868.655394	488.980335	-63.249722	-907.565625	323.790597	47.782213	-976.604719	370.900938	16.298892	-963.899641	339.184456	41.925911	-1021.322603	339.153993	107.120442	-1167.021020	383.137187	151.590236	-1203.763196	459.821516	210.440746	-1151.498558	243.087607	238.280390	-1167.849613	238.126437	193.568243	-827.640184	701.021260	354.611777	-776.428957	661.947754	362.393303	-745.669750	666.037939	348.640226	-781.384931	577.103459	380.026093	-728.843544	485.177283	403.312425	-713.987053	270.167334	451.424527	-780.892914	232.758848	527.844777	-743.916874	213.214104	506.707134	-754.581835	158.485307	500.168599	-816.753392	100.695667	581.998990	-898.104674	49.071991	575.364742	-681.256994	57.282782	507.277269	-671.023964	57.119808	545.242534	-694.729588	34.118582	608.182865	
398	1.985000	-555.675592	1496.458308	40.824085	-754.706747	1478.307188	20.158816	-675.567420	1488.720841	118.746585	-795.982483	1364.416815	69.168647	-979.239163	1066.249766	104.389606	-703.549990	1232.566680	50.275006	-739.064701	1285.083223	-91.783002	-892.289549	1174.427937	-187.273090	-886.919483	1126.905508	-174.683866	-941.587980	1127.521427	-201.302402	-1038.651928	1066.149548	-217.137779	-1068.231016	1072.541788	-145.227402	-1111.541453	814.198097	-180.384964	-1166.969146	832.404895	-225.807886	-1125.895984	740.177120	-208.120494	-720.172784	1303.008692	219.915496	-791.884585	1222.383268	360.775446	-774.147435	1180.425089	370.171290	-816.584175	1187.341408	413.749040	-861.249262	1088.117718	499.471257	-907.364906	1054.569523	459.219106	-670.814835	926.363646	427.274852	-689.245566	896.620303	489.522155	-599.411009	921.689878	455.812231	-820.808013	882.794668	197.511675	-1015.576677	976.775144	127.601372	-1029.035784	940.424273	109.838301	-1010.651435	952.502650	164.702689	-890.507218	613.374062	-72.480765	-831.044470	554.337658	-88.323666	-788.041059	574.244550	-89.961073	-832.911032	493.645764	-74.487396	-862.686975	326.832073	35.097323	-933.586291	371.875375	6.226224	-919.239719	340.264430	31.011272	-975.018914	337.428981	97.605252	-1120.944726	375.626991	146.184096	-1159.342855	449.979898	207.091295	-1097.946513	235.325191	230.553033	-1115.132989	230.378269	186.033708	-807.312328	698.408336	352.967328	-756.616671	658.797296	361.575126	-725.555468	662.559595	348.368185	-762.811149	574.076071	379.486285	-711.451901	481.420896	403.015657	-704.889397	266.250418	452.553834	-774.490560	231.664843	528.170656	-737.942115	210.658864	507.770232	-750.724777	156.240308	500.901393	-816.048394	101.250156	582.039120	-898.399524	50.073027	575.190991	-681.469473	57.533132	507.657212	-671.217057	57.284429	545.666168	-695.071636	34.152437	608.561386	
399	1.990000	-530.979671	1493.272963	28.898978	-730.343548	1474.855762	10.996086	-649.839773	1485.475587	108.533321	-771.010351	1361.203563	61.323768	-955.007861	1064.137996	99.340763	-679.110759	1228.236057	41.216405	-717.210278	1280.255823	-100.771072	-874.460413	1171.447820	-191.724682	-869.379663	1123.692827	-179.558774	-924.694241	1125.414347	-204.676857	-1022.586997	1065.483881	-218.157269	-1050.462504	1072.174670	-145.347793	-1106.689824	817.106193	-181.331058	-1162.360536	838.719116	-225.413035	-1127.583246	743.037659	-209.049033	-690.317159	1299.711148	210.804122	-752.201678	1215.202216	353.138576	-733.722602	1173.490725	361.319265	-773.278748	1179.261236	406.871799	-812.145655	1077.457288	493.599922	-859.954045	1043.140603	455.544484	-621.689135	922.699950	411.565201	-636.052433	891.378796	474.217258	-549.022097	919.757230	436.931727	-797.469834	880.285219	193.918396	-992.281297	974.413692	122.297630	-1005.221440	937.745419	104.769604	-986.966070	950.580079	159.620207	-860.727253	616.002479	-80.317913	-798.837985	560.267453	-98.458016	-756.886096	582.179124	-100.605647	-797.509998	499.324176	-85.714337	-817.889651	330.516799	22.422996	-890.785266	373.013321	-3.774239	-874.636101	341.627418	20.119946	-928.642511	335.705728	88.002250	-1074.668326	367.172507	140.605712	-1114.977975	438.858528	203.534686	-1043.458811	227.184618	222.534855	-1061.398578	222.080360	178.189952	-787.158877	696.392568	350.979642	-737.041995	656.225193	360.412015	-705.757251	659.563823	347.585398	-744.563029	571.712977	378.865345	-694.848152	478.103377	402.702022	-696.356123	262.898779	453.707787	-768.421661	231.051814	528.487793	-732.297138	208.729075	508.876567	-747.031394	154.644872	501.558907	-815.273881	102.368653	581.992372	-898.567294	51.730926	574.710060	-681.488099	57.719840	507.924067	-671.252481	57.428677	546.016071	-695.407195	34.218703	608.820814	
